<svg width="729" height="720" viewBox="0 0 729 720" fill="none" xmlns="http://www.w3.org/2000/svg">
<circle cx="371.5" cy="355.5" r="249.5" stroke="#4144B9" stroke-width="44"/>
<circle cx="291" cy="159" r="14" fill="#4144B9"/>
<circle cx="333" cy="264" r="14" fill="#4144B9"/>
<circle cx="315" cy="214" r="14" fill="#4144B9"/>
<circle cx="394" cy="278" r="14" fill="#4144B9"/>
<circle cx="387" cy="196" r="14" fill="#4144B9"/>
<circle cx="459" cy="159" r="14" fill="#4144B9"/>
<circle cx="301" cy="369" r="14" fill="#4144B9"/>
<circle cx="322" cy="414" r="14" fill="#4144B9"/>
<circle cx="361" cy="351" r="14" fill="#4144B9"/>
<circle cx="401" cy="344" r="14" fill="#4144B9"/>
<circle cx="305" cy="323" r="14" fill="#4144B9"/>
<circle cx="235" cy="348" r="14" fill="#4144B9"/>
<circle cx="193" cy="379" r="14" fill="#4144B9"/>
<circle cx="263" cy="264" r="14" fill="#4144B9"/>
<circle cx="217" cy="465" r="14" fill="#4144B9"/>
<circle cx="245" cy="411" r="14" fill="#4144B9"/>
<circle cx="174" cy="285" r="14" fill="#4144B9"/>
<circle cx="375" cy="507" r="14" fill="#4144B9"/>
<circle cx="366" cy="527" r="14" fill="#4144B9"/>
<circle cx="319" cy="479" r="14" fill="#4144B9"/>
<circle cx="315" cy="527" r="14" fill="#4144B9"/>
<circle cx="401" cy="411" r="14" fill="#4144B9"/>
<circle cx="445" cy="383" r="14" fill="#4144B9"/>
<circle cx="501" cy="358" r="14" fill="#4144B9"/>
<circle cx="445" cy="465" r="14" fill="#4144B9"/>
<circle cx="451" cy="508" r="14" fill="#4144B9"/>
<circle cx="459" cy="329" r="14" fill="#4144B9"/>
<circle cx="479" cy="297" r="14" fill="#4144B9"/>
<circle cx="487" cy="236" r="14" fill="#4144B9"/>
<circle cx="501" cy="411" r="14" fill="#4144B9"/>
<circle cx="541" cy="451" r="14" fill="#4144B9"/>
<circle cx="555" cy="323" r="14" fill="#4144B9"/>
<circle cx="529" cy="257" r="14" fill="#4144B9"/>
<circle cx="559" cy="365" r="14" fill="#4144B9"/>
<line x1="372" y1="100" x2="372" y2="10.6557" stroke="#4144B9" stroke-width="30"/>
<path d="M449 0.438152C425.5 1.42399 397.833 6.5857 385.5 12.5283H359.5C355.9 8.10208 323.667 2.62394 308 0.438152C308 0.438152 472.5 -0.54769 449 0.438152Z" fill="#4144B9"/>
<line x1="629" y1="347" x2="718.344" y2="347" stroke="#4144B9" stroke-width="30"/>
<path d="M728.562 424C727.576 400.5 722.414 372.833 716.472 360.5L716.472 334.5C720.898 330.9 726.376 298.667 728.562 283C728.562 283 729.548 447.5 728.562 424Z" fill="#4144B9"/>
<line x1="583" y1="189.426" x2="660.374" y2="144.754" stroke="#4144B9" stroke-width="30"/>
<path d="M707.723 206.329C695.119 186.47 676.816 165.091 665.503 157.381L652.503 134.864C654.536 129.534 643.163 98.8797 637.223 84.2191C637.223 84.2191 720.327 226.187 707.723 206.329Z" fill="#4144B9"/>
<line x1="552.072" y1="547.255" x2="615.248" y2="610.431" stroke="#4144B9" stroke-width="30"/>
<path d="M568.026 672.103C583.946 654.789 599.859 631.576 604.378 618.653L622.763 600.268C628.438 600.852 655.104 581.933 667.728 572.401C667.728 572.401 552.106 689.417 568.026 672.103Z" fill="#4144B9"/>
<line x1="100" y1="350.298" x2="10.6557" y2="350.298" stroke="#4144B9" stroke-width="30"/>
<path d="M0.438146 273.298C1.42399 296.798 6.5857 324.464 12.5283 336.798L12.5283 362.798C8.10208 366.398 2.62394 398.631 0.438152 414.298C0.438152 414.298 -0.547697 249.798 0.438146 273.298Z" fill="#4144B9"/>
<line x1="168.603" y1="194.674" x2="91.2281" y2="150.002" stroke="#4144B9" stroke-width="30"/>
<path d="M120.879 78.209C109.983 99.0535 100.62 125.594 99.5998 139.247L86.5998 161.763C80.9666 162.668 60.1057 187.844 50.3795 200.319C50.3795 200.319 131.776 57.3645 120.879 78.209Z" fill="#4144B9"/>
<line x1="378.298" y1="620" x2="378.298" y2="709.344" stroke="#4144B9" stroke-width="30"/>
<path d="M301.298 719.562C324.798 718.576 352.465 713.414 364.798 707.472L390.798 707.472C394.398 711.898 426.631 717.376 442.298 719.562C442.298 719.562 277.798 720.548 301.298 719.562Z" fill="#4144B9"/>
<line x1="177.783" y1="520.072" x2="114.607" y2="583.248" stroke="#4144B9" stroke-width="30"/>
<path d="M52.9347 536.026C70.2488 551.946 93.4619 567.859 106.385 572.378L124.77 590.763C124.186 596.438 143.104 623.104 152.637 635.728C152.637 635.728 35.6206 520.106 52.9347 536.026Z" fill="#4144B9"/>
</svg>
