<svg width="1014" height="1004" viewBox="0 0 1014 1004" fill="none" xmlns="http://www.w3.org/2000/svg">
<circle cx="504.5" cy="508.5" r="261" stroke="#4144B9" stroke-width="21"/>
<circle cx="452" cy="340" r="42" fill="#4144B9"/>
<circle cx="653" cy="466" r="42" fill="#4144B9"/>
<circle cx="494" cy="445" r="42" fill="#4144B9"/>
<circle cx="620" cy="340" r="42" fill="#4144B9"/>
<circle cx="462" cy="550" r="42" fill="#4144B9"/>
<circle cx="378" cy="646" r="42" fill="#4144B9"/>
<circle cx="335" cy="466" r="42" fill="#4144B9"/>
<circle cx="536" cy="688" r="42" fill="#4144B9"/>
<circle cx="562" cy="592" r="42" fill="#4144B9"/>
<circle cx="662" cy="592" r="42" fill="#4144B9"/>
<line x1="505" y1="244" x2="505" y2="26" stroke="#4144B9" stroke-width="30"/>
<path d="M582 1.06909C558.5 3.47454 530.833 16.0691 518.5 30.5691H492.5C488.9 19.7691 456.667 6.40241 441 1.06909C441 1.06909 605.5 -1.33636 582 1.06909Z" fill="#4144B9"/>
<line x1="770" y1="500" x2="988" y2="500" stroke="#4144B9" stroke-width="30"/>
<path d="M1012.93 577C1010.53 553.5 997.931 525.833 983.431 513.5L983.431 487.5C994.231 483.9 1007.6 451.667 1012.93 436C1012.93 436 1015.34 600.5 1012.93 577Z" fill="#4144B9"/>
<line x1="700" y1="330.426" x2="888.794" y2="221.426" stroke="#4144B9" stroke-width="30"/>
<path d="M948.884 275.644C935.051 256.495 910.311 238.833 891.587 235.402L878.587 212.885C886.14 204.367 881.599 169.769 878.384 153.535C878.384 153.535 962.718 294.793 948.884 275.644Z" fill="#4144B9"/>
<line x1="688.072" y1="704.255" x2="842.221" y2="858.404" stroke="#4144B9" stroke-width="30"/>
<path d="M805.403 930.48C820.319 912.162 830.976 883.693 829.444 864.719L847.829 846.334C858.012 851.426 890.256 838.085 905.105 830.778C905.105 830.778 790.487 948.798 805.403 930.48Z" fill="#4144B9"/>
<line x1="244.649" y1="503.298" x2="26.6489" y2="503.298" stroke="#4144B9" stroke-width="30"/>
<path d="M1.71801 426.298C4.12346 449.798 16.718 477.464 31.218 489.798L31.218 515.798C20.418 519.398 7.05133 551.631 1.71802 567.298C1.71802 567.298 -0.687445 402.798 1.71801 426.298Z" fill="#4144B9"/>
<line x1="302.31" y1="343.674" x2="113.517" y2="234.674" stroke="#4144B9" stroke-width="30"/>
<path d="M130.426 155.524C120.759 177.079 117.833 207.336 124.224 225.267L111.224 247.784C100.071 245.501 72.378 266.733 59.9259 277.634C59.9259 277.634 140.093 133.97 130.426 155.524Z" fill="#4144B9"/>
<line x1="511.298" y1="760" x2="511.298" y2="978" stroke="#4144B9" stroke-width="30"/>
<path d="M434.298 1002.93C457.798 1000.53 485.465 987.931 497.798 973.431L523.798 973.431C527.398 984.231 559.631 997.598 575.298 1002.93C575.298 1002.93 410.798 1005.34 434.298 1002.93Z" fill="#4144B9"/>
<line x1="306.606" y1="685.072" x2="152.457" y2="839.221" stroke="#4144B9" stroke-width="30"/>
<path d="M80.3808 802.403C98.6987 817.319 127.168 827.977 146.142 826.444L164.527 844.829C159.435 855.012 172.776 887.256 180.083 902.105C180.083 902.105 62.0629 787.487 80.3808 802.403Z" fill="#4144B9"/>
</svg>
